<?xml version="1.0" standalone="no"?><!DOCTYPE svg PUBLIC "-//W3C//DTD SVG 1.1//EN" "http://www.w3.org/Graphics/SVG/1.1/DTD/svg11.dtd"><svg t="1623899925625" class="icon" viewBox="0 0 1024 1024" version="1.1" xmlns="http://www.w3.org/2000/svg" p-id="28393" xmlns:xlink="http://www.w3.org/1999/xlink" width="200" height="200"><defs><style type="text/css"></style></defs><path d="M821.333333 1024H201.955556A202.296889 202.296889 0 0 1 0 821.902222V202.097778A202.296889 202.296889 0 0 1 201.955556 0h309.674666a40.391111 40.391111 0 0 1 0 80.839111H201.955556a121.486222 121.486222 0 0 0-121.173334 121.258667v619.804444a121.486222 121.486222 0 0 0 121.173334 121.258667h619.377777a121.486222 121.486222 0 0 0 121.173334-121.258667V512a40.391111 40.391111 0 1 1 80.782222 0v309.902222a202.296889 202.296889 0 0 1-201.955556 202.097778z m33.905778-932.124444l37.973333 38.286222 38.257778 38.001778-185.827555 185.912888-222.151111 222.065778-83.740445 7.793778 7.793778-83.797333 221.895111-222.321778 185.799111-185.912889z m0-91.875556c-14.336 0-28.103111 5.688889-38.229333 15.900444l-204.657778 204.8-235.349333 237.397334a26.965333 26.965333 0 0 0-7.822223 16.440889l-15.075555 167.879111a26.965333 26.965333 0 0 0 26.936889 29.383111h2.417778l167.765333-15.075556a26.908444 26.908444 0 0 0 16.440889-7.822222l235.889778-236.088889 204.657777-204.8a53.902222 53.902222 0 0 0 0-76.231111l-57.912889-58.766222L893.212444 15.928889A53.845333 53.845333 0 0 0 855.239111 0z" p-id="28394" fill="#008cff"></path></svg>